<?xml version="1.0" encoding="UTF-8"?>
<!DOCTYPE svg PUBLIC "-//W3C//DTD SVG 1.1//EN" "http://www.w3.org/Graphics/SVG/1.1/DTD/svg11.dtd">
<svg xmlns="http://www.w3.org/2000/svg" version="1.1" width="491px" height="491px" style="shape-rendering:geometricPrecision; text-rendering:geometricPrecision; image-rendering:optimizeQuality; fill-rule:evenodd; clip-rule:evenodd" xmlns:xlink="http://www.w3.org/1999/xlink">
<g><path style="opacity:0.267" fill="#c8cbcc" d="M 72.5,18.5 C 73.8333,19.1667 73.8333,19.1667 72.5,18.5 Z"/></g>
<g><path style="opacity:1" fill="#9da3a7" d="M 144.5,18.5 C 144.5,18.8333 144.5,19.1667 144.5,19.5C 122.801,19.0941 101.134,19.5941 79.5,21C 74.0683,21.9213 68.735,23.2546 63.5,25C 58.4469,27.5266 53.4469,30.0266 48.5,32.5C 56.4996,25.8652 66.1663,21.6985 77.5,20C 99.7983,18.5783 122.132,18.0783 144.5,18.5 Z"/></g>
<g><path style="opacity:1" fill="#868c91" d="M 144.5,19.5 C 144.5,19.1667 144.5,18.8333 144.5,18.5C 234.501,18.3333 324.501,18.5 414.5,19C 420.895,19.9262 426.895,21.7595 432.5,24.5C 427.391,23.7783 422.391,22.6117 417.5,21C 412.833,20.6667 408.167,20.3333 403.5,20C 310.674,19.8387 224.341,19.672 144.5,19.5 Z"/></g>
<g><path style="opacity:1" fill="#000000" d="M 144.5,19.5 C 224.341,19.672 310.674,19.8387 403.5,20C 408.167,20.3333 412.833,20.6667 417.5,21C 422.391,22.6117 427.391,23.7783 432.5,24.5C 436.849,27.3411 441.516,29.6745 446.5,31.5C 451.094,35.9164 455.927,40.2498 461,44.5C 472.386,57.6225 478.552,72.9558 479.5,90.5C 479.667,152.834 479.5,215.168 479,277.5C 473.392,268.228 467.392,259.228 461,250.5C 460.833,196.332 460.333,142.332 459.5,88.5C 457.562,67.4806 446.896,52.6472 427.5,44C 422.977,42.2025 418.31,41.0359 413.5,40.5C 347.845,39.532 282.178,39.1986 216.5,39.5C 173.167,39.5 129.833,39.5 86.5,39.5C 85.2921,40.2341 83.9587,40.5674 82.5,40.5C 63.7793,43.3794 50.2793,53.3794 42,70.5C 39.582,75.5858 38.082,80.9191 37.5,86.5C 37.5674,87.9587 37.2341,89.2921 36.5,90.5C 36.5,143.833 36.5,197.167 36.5,250.5C 29.924,258.654 23.5906,266.987 17.5,275.5C 17.5,214.167 17.5,152.833 17.5,91.5C 18.8534,69.0862 27.8534,50.4195 44.5,35.5C 46.4044,35.2624 47.7377,34.2624 48.5,32.5C 53.4469,30.0266 58.4469,27.5266 63.5,25C 68.735,23.2546 74.0683,21.9213 79.5,21C 101.134,19.5941 122.801,19.0941 144.5,19.5 Z"/></g>
<g><path style="opacity:0.267" fill="#c9cdcc" d="M 424.5,19.5 C 425.833,20.1667 425.833,20.1667 424.5,19.5 Z"/></g>
<g><path style="opacity:1" fill="#a7a8ae" d="M 432.5,24.5 C 435.941,25.0895 439.108,26.4228 442,28.5C 442.333,28.1667 442.667,27.8333 443,27.5C 444.102,28.949 445.269,30.2823 446.5,31.5C 441.516,29.6745 436.849,27.3411 432.5,24.5 Z"/></g>
<g><path style="opacity:0.133" fill="#e3e5e5" d="M 447.5,29.5 C 448.833,30.1667 448.833,30.1667 447.5,29.5 Z"/></g>
<g><path style="opacity:1" fill="#90979d" d="M 48.5,32.5 C 47.7377,34.2624 46.4044,35.2624 44.5,35.5C 45.0347,33.5544 46.368,32.5544 48.5,32.5 Z"/></g>
<g><path style="opacity:0.533" fill="#919699" d="M 454.5,33.5 C 455.833,34.1667 455.833,34.1667 454.5,33.5 Z"/></g>
<g><path style="opacity:0.533" fill="#9ea3a6" d="M 446.5,31.5 C 451.547,34.2017 456.214,37.535 460.5,41.5C 469.994,51.8389 476.161,63.5056 479,76.5C 480.122,81.1016 480.622,85.7682 480.5,90.5C 480.167,90.5 479.833,90.5 479.5,90.5C 478.552,72.9558 472.386,57.6225 461,44.5C 455.927,40.2498 451.094,35.9164 446.5,31.5 Z"/></g>
<g><path style="opacity:1" fill="#dadcdf" d="M 86.5,39.5 C 129.833,39.5 173.167,39.5 216.5,39.5C 195.167,40.1667 173.833,40.8333 152.5,41.5C 149.833,41.5 147.167,41.5 144.5,41.5C 125.167,40.8333 105.833,40.1667 86.5,39.5 Z"/></g>
<g><path style="opacity:0.133" fill="#e7e8e8" d="M 36.5,41.5 C 35.8333,40.1667 35.8333,40.1667 36.5,41.5 Z"/></g>
<g><path style="opacity:0.933" fill="#6c7378" d="M 86.5,39.5 C 105.833,40.1667 125.167,40.8333 144.5,41.5C 123.833,41.5 103.167,41.5 82.5,41.5C 82.5,41.1667 82.5,40.8333 82.5,40.5C 83.9587,40.5674 85.2921,40.2341 86.5,39.5 Z"/></g>
<g><path style="opacity:1" fill="#7d8388" d="M 216.5,39.5 C 282.178,39.1986 347.845,39.532 413.5,40.5C 413.5,40.8333 413.5,41.1667 413.5,41.5C 326.5,41.5 239.5,41.5 152.5,41.5C 173.833,40.8333 195.167,40.1667 216.5,39.5 Z"/></g>
<g><path style="opacity:1" fill="#9da2a6" d="M 413.5,41.5 C 413.5,41.1667 413.5,40.8333 413.5,40.5C 418.31,41.0359 422.977,42.2025 427.5,44C 446.896,52.6472 457.562,67.4806 459.5,88.5C 459.817,92.7016 459.483,96.7016 458.5,100.5C 460.082,77.6771 451.748,60.3438 433.5,48.5C 427.211,44.96 420.545,42.6267 413.5,41.5 Z"/></g>
<g><path style="opacity:0.133" fill="#d3d5d7" d="M 24.5,57.5 C 23.7611,57.631 23.0944,57.4643 22.5,57C 23.4368,56.3083 24.1034,56.475 24.5,57.5 Z"/></g>
<g><path style="opacity:1" fill="#999da1" d="M 82.5,40.5 C 82.5,40.8333 82.5,41.1667 82.5,41.5C 58.2906,47.374 43.6239,62.374 38.5,86.5C 38.1667,86.5 37.8333,86.5 37.5,86.5C 38.082,80.9191 39.582,75.5858 42,70.5C 50.2793,53.3794 63.7793,43.3794 82.5,40.5 Z"/></g>
<g><path style="opacity:0.267" fill="#c9cccc" d="M 49.5,63.5 C 50.8333,64.1667 50.8333,64.1667 49.5,63.5 Z"/></g>
<g><path style="opacity:1" fill="#a4a8ad" d="M 44.5,35.5 C 27.8534,50.4195 18.8534,69.0862 17.5,91.5C 17.1667,91.5 16.8333,91.5 16.5,91.5C 16.5702,84.7441 17.4035,78.0774 19,71.5C 21.1235,66.9239 22.9569,62.2573 24.5,57.5C 28.0017,51.8472 32.0017,46.5139 36.5,41.5C 38.9024,39.0908 41.5691,37.0908 44.5,35.5 Z"/></g>
<g><path style="opacity:1" fill="#c2c6ca" d="M 420.5,81.5 C 420.5,81.8333 420.5,82.1667 420.5,82.5C 419.244,82.5386 418.244,82.0386 417.5,81C 307.834,80.5 198.167,80.3333 88.5,80.5C 88.5,80.1667 88.5,79.8333 88.5,79.5C 181.001,78.8741 276.834,78.5407 376,78.5C 389.167,78.6667 402.333,78.8333 415.5,79C 417.452,79.3661 419.118,80.1995 420.5,81.5 Z"/></g>
<g><path style="opacity:1" fill="#8305c5" d="M 88.5,80.5 C 198.167,80.3333 307.834,80.5 417.5,81C 418.244,82.0386 419.244,82.5386 420.5,82.5C 423.967,86.3825 424.801,90.7158 423,95.5C 421.786,97.0488 420.286,98.2155 418.5,99C 304.833,99.6667 191.167,99.6667 77.5,99C 70.3383,91.7939 71.3383,85.7939 80.5,81C 83.146,80.5026 85.8127,80.3359 88.5,80.5 Z"/></g>
<g><path style="opacity:1" fill="#bcc0c4" d="M 88.5,79.5 C 88.5,79.8333 88.5,80.1667 88.5,80.5C 85.8127,80.3359 83.146,80.5026 80.5,81C 71.3383,85.7939 70.3383,91.7939 77.5,99C 191.167,99.6667 304.833,99.6667 418.5,99C 420.286,98.2155 421.786,97.0488 423,95.5C 424.801,90.7158 423.967,86.3825 420.5,82.5C 420.5,82.1667 420.5,81.8333 420.5,81.5C 423.658,83.906 425.325,87.2393 425.5,91.5C 424.961,94.2482 424.128,96.9149 423,99.5C 422.086,98.3463 421.253,98.513 420.5,100C 391.928,100.171 363.428,100.671 335,101.5C 269.421,100.433 204.754,100.433 141,101.5C 119.512,100.717 98.0123,100.217 76.5,100C 75.7471,98.513 74.9138,98.3463 74,99.5C 68.2667,85.1835 73.1001,78.5168 88.5,79.5 Z"/></g>
<g><path style="opacity:1" fill="#5c6369" d="M 37.5,86.5 C 37.8333,86.5 38.1667,86.5 38.5,86.5C 38.5,103.167 38.5,119.833 38.5,136.5C 37.8333,121.167 37.1667,105.833 36.5,90.5C 37.2341,89.2921 37.5674,87.9587 37.5,86.5 Z"/></g>
<g><path style="opacity:0.267" fill="#c8cccc" d="M 77.5,137.5 C 78.8333,138.167 78.8333,138.167 77.5,137.5 Z"/></g>
<g><path style="opacity:1" fill="#c8ccd0" d="M 376.5,139.5 C 389.833,140.167 403.167,140.833 416.5,141.5C 303.5,141.333 190.5,141.5 77.5,142C 72.1317,145.232 70.6317,149.732 73,155.5C 74.5429,157.378 76.3762,158.878 78.5,160C 105.831,160.5 133.165,160.667 160.5,160.5C 160.5,160.833 160.5,161.167 160.5,161.5C 133.588,161.309 108.088,161.643 84,162.5C 74.1117,161.616 69.7784,156.283 71,146.5C 73.1074,141.727 76.7741,139.394 82,139.5C 173.932,140.198 272.099,140.198 376.5,139.5 Z"/></g>
<g><path style="opacity:1" fill="#0c6806" d="M 416.5,141.5 C 427.897,146.964 428.397,153.297 418,160.5C 332.374,160.494 246.541,160.494 160.5,160.5C 133.165,160.667 105.831,160.5 78.5,160C 76.3762,158.878 74.5429,157.378 73,155.5C 70.6317,149.732 72.1317,145.232 77.5,142C 190.5,141.5 303.5,141.333 416.5,141.5 Z"/></g>
<g><path style="opacity:1" fill="#d6dadf" d="M 36.5,90.5 C 37.1667,105.833 37.8333,121.167 38.5,136.5C 38.5,147.167 38.5,157.833 38.5,168.5C 37.8333,195.833 37.1667,223.167 36.5,250.5C 36.5,197.167 36.5,143.833 36.5,90.5 Z"/></g>
<g><path style="opacity:1" fill="#adb3b8" d="M 459.5,88.5 C 460.333,142.332 460.833,196.332 461,250.5C 467.392,259.228 473.392,268.228 479,277.5C 479.5,215.168 479.667,152.834 479.5,90.5C 479.833,90.5 480.167,90.5 480.5,90.5C 481.659,151.126 481.826,211.793 481,272.5C 480.667,275.167 480.333,277.833 480,280.5C 478.147,278.097 476.314,275.764 474.5,273.5C 470.664,265.833 465.83,258.833 460,252.5C 458.521,201.82 458.021,151.153 458.5,100.5C 459.483,96.7016 459.817,92.7016 459.5,88.5 Z"/></g>
<g><path style="opacity:1" fill="#a3a9ae" d="M 376.5,139.5 C 390.171,139.333 403.837,139.5 417.5,140C 425.385,142.97 427.885,148.47 425,156.5C 424.052,158.57 422.552,160.07 420.5,161C 333.834,161.5 247.167,161.667 160.5,161.5C 160.5,161.167 160.5,160.833 160.5,160.5C 246.541,160.494 332.374,160.494 418,160.5C 428.397,153.297 427.897,146.964 416.5,141.5C 403.167,140.833 389.833,140.167 376.5,139.5 Z"/></g>
<g><path style="opacity:1" fill="#000000" d="M 347.5,214.5 C 355.522,219.399 363.855,223.732 372.5,227.5C 374.484,230.164 377.151,231.831 380.5,232.5C 383.803,236.156 387.803,238.822 392.5,240.5C 394.8,242.984 397.467,244.984 400.5,246.5C 416.123,259.788 431.123,273.788 445.5,288.5C 455.092,301.027 464.925,314.027 475,327.5C 476.807,329.74 476.974,332.073 475.5,334.5C 467.028,345.302 459.361,356.636 452.5,368.5C 445.463,376.202 438.797,384.202 432.5,392.5C 428.833,394.167 426.167,396.833 424.5,400.5C 420.931,402.34 418.264,405.007 416.5,408.5C 406.118,417.552 395.451,426.219 384.5,434.5C 380.317,436.087 376.65,438.421 373.5,441.5C 363.264,446.406 353.264,451.739 343.5,457.5C 279.732,484.14 216.065,483.807 152.5,456.5C 147.719,452.895 142.386,450.229 136.5,448.5C 119.285,437.619 102.619,425.953 86.5,413.5C 85.8333,413.5 85.5,413.167 85.5,412.5C 81.7934,407.792 77.4601,403.792 72.5,400.5C 69.2297,395.56 65.2297,391.227 60.5,387.5C 60.1667,387.5 59.8333,387.5 59.5,387.5C 59.5,387.167 59.5,386.833 59.5,386.5C 58.5806,383.911 56.914,381.911 54.5,380.5C 48.984,372.134 42.984,364.134 36.5,356.5C 34.3265,352.148 31.6599,348.148 28.5,344.5C 26.446,340.061 24.1127,335.728 21.5,331.5C 32.454,315.238 44.1207,299.572 56.5,284.5C 75.5271,264.303 96.5271,246.47 119.5,231C 192.596,187.13 268.596,181.63 347.5,214.5 Z M 348.5,262.5 C 355.243,265.527 361.243,269.527 366.5,274.5C 371.782,278.89 377.116,283.223 382.5,287.5C 383.167,287.833 383.833,288.167 384.5,288.5C 386.127,290.63 387.96,292.63 390,294.5C 390.667,295.167 390.667,295.833 390,296.5C 361.876,279.879 332.376,276.379 301.5,286C 293.966,288.663 286.966,292.163 280.5,296.5C 273.854,299.692 268.02,303.358 263,307.5C 252.941,314.549 243.108,322.549 233.5,331.5C 233.167,332.167 232.833,332.833 232.5,333.5C 230.127,334.203 228.127,335.536 226.5,337.5C 225.922,336.453 225.256,336.62 224.5,338C 224.728,338.399 225.062,338.565 225.5,338.5C 223.651,339.593 221.984,340.926 220.5,342.5C 217.527,344.806 214.86,347.473 212.5,350.5C 207.009,353.23 202.342,356.897 198.5,361.5C 192.079,363.885 185.913,367.218 180,371.5C 179.667,371.167 179.333,370.833 179,370.5C 175.578,372.466 172.078,374.133 168.5,375.5C 152.994,377.352 137.994,375.685 123.5,370.5C 114.081,367.616 105.748,363.616 98.5,358.5C 95.1389,356.489 91.8056,354.489 88.5,352.5C 88.1667,351.833 87.8333,351.167 87.5,350.5C 83.8536,348.183 80.5203,345.516 77.5,342.5C 74.6569,341.079 73.3236,339.079 73.5,336.5C 77.4299,332.929 80.7632,328.929 83.5,324.5C 85.8025,322.022 87.9692,319.355 90,316.5C 90.3826,317.056 90.8826,317.389 91.5,317.5C 91.4521,314.708 92.7854,312.875 95.5,312C 95.1667,311.667 94.8333,311.333 94.5,311C 106.766,298.231 119.432,286.064 132.5,274.5C 136.657,272.397 140.157,270.063 143,267.5C 143.333,267.833 143.667,268.167 144,268.5C 144.465,267.069 145.299,265.903 146.5,265C 150.585,262.999 154.252,260.499 157.5,257.5C 163.681,255.245 169.348,252.245 174.5,248.5C 226.561,226.475 278.228,227.309 329.5,251C 336.672,254.535 343.006,258.368 348.5,262.5 Z M 388.5,309.5 C 388.842,310.338 389.508,310.672 390.5,310.5C 398.509,316.989 406.509,323.655 414.5,330.5C 416.694,332.202 418.36,334.369 419.5,337C 417.598,338.73 415.931,340.563 414.5,342.5C 413.922,341.453 413.256,341.62 412.5,343C 412.728,343.399 413.062,343.565 413.5,343.5C 407.809,350.852 402.143,358.185 396.5,365.5C 393.212,368.449 389.879,371.449 386.5,374.5C 382.445,379.474 378.112,383.474 373.5,386.5C 368.776,390.871 363.776,395.538 358.5,400.5C 354.645,401.848 350.978,404.348 347.5,408C 343.946,410.393 340.28,412.56 336.5,414.5C 330.298,418.433 323.965,422.1 317.5,425.5C 314.889,424.786 312.555,425.619 310.5,428C 308.564,428.813 306.564,429.313 304.5,429.5C 303.687,430.653 302.687,430.653 301.5,429.5C 301.891,430.718 301.224,431.552 299.5,432C 266.622,441.662 233.622,441.996 200.5,433C 189.694,429.425 179.027,425.591 168.5,421.5C 157.89,415.174 147.223,408.84 136.5,402.5C 129.519,396.888 122.519,390.554 115.5,383.5C 154.801,396.599 191.801,391.932 226.5,369.5C 233.382,365.126 239.882,360.126 246,354.5C 246.333,354.833 246.667,355.167 247,355.5C 263.495,340.527 279.995,325.527 296.5,310.5C 298.027,310.573 299.027,309.906 299.5,308.5C 306.251,304.791 313.251,301.625 320.5,299C 337.849,293.623 354.682,294.79 371,302.5C 371.333,302.167 371.667,301.833 372,301.5C 377.323,304.578 382.823,307.245 388.5,309.5 Z"/></g>
<g><path style="opacity:0.267" fill="#c8cbcc" d="M 192.5,196.5 C 193.833,197.167 193.833,197.167 192.5,196.5 Z"/></g>
<g><path style="opacity:0.133" fill="#e3e5e5" d="M 168.5,203.5 C 169.833,204.167 169.833,204.167 168.5,203.5 Z"/></g>
<g><path style="opacity:1" fill="#2b373c" d="M 327.5,203.5 C 328.833,204.167 328.833,204.167 327.5,203.5 Z"/></g>
<g><path style="opacity:1" fill="#b8bbc0" d="M 16.5,91.5 C 16.8333,91.5 17.1667,91.5 17.5,91.5C 17.5,152.833 17.5,214.167 17.5,275.5C 17.1667,275.5 16.8333,275.5 16.5,275.5C 15.6999,214.229 15.6999,152.895 16.5,91.5 Z"/></g>
<g><path style="opacity:0.533" fill="#919899" d="M 151.5,209.5 C 152.833,210.167 152.833,210.167 151.5,209.5 Z"/></g>
<g><path style="opacity:1" fill="#a5abae" d="M 347.5,214.5 C 268.596,181.63 192.596,187.13 119.5,231C 96.5271,246.47 75.5271,264.303 56.5,284.5C 92.1664,242.151 136.833,213.651 190.5,199C 237.486,187.903 283.82,190.237 329.5,206C 335.766,208.572 341.766,211.406 347.5,214.5 Z"/></g>
<g><path style="opacity:1" fill="#9fa5a9" d="M 347.5,214.5 C 350.265,214.798 352.765,215.798 355,217.5C 356.016,216.366 356.683,216.699 357,218.5C 362.4,220.471 367.567,223.471 372.5,227.5C 363.855,223.732 355.522,219.399 347.5,214.5 Z"/></g>
<g><path style="opacity:1" fill="#969da3" d="M 372.5,227.5 C 375.849,228.169 378.516,229.836 380.5,232.5C 377.151,231.831 374.484,230.164 372.5,227.5 Z"/></g>
<g><path style="opacity:1" fill="#9a9da1" d="M 380.5,232.5 C 385.322,233.998 389.322,236.664 392.5,240.5C 387.803,238.822 383.803,236.156 380.5,232.5 Z"/></g>
<g><path style="opacity:0.933" fill="#9ba0a4" d="M 392.5,240.5 C 394.124,240.36 395.29,241.027 396,242.5C 396.333,242.167 396.667,241.833 397,241.5C 398.176,243.196 399.343,244.862 400.5,246.5C 397.467,244.984 394.8,242.984 392.5,240.5 Z"/></g>
<g><path style="opacity:1" fill="#a8aeb3" d="M 174.5,248.5 C 169.348,252.245 163.681,255.245 157.5,257.5C 162.409,253.21 168.076,250.21 174.5,248.5 Z"/></g>
<g><path style="opacity:1" fill="#9da3a7" d="M 384.5,288.5 C 383.833,288.167 383.167,287.833 382.5,287.5C 377.116,283.223 371.782,278.89 366.5,274.5C 361.243,269.527 355.243,265.527 348.5,262.5C 343.006,258.368 336.672,254.535 329.5,251C 278.228,227.309 226.561,226.475 174.5,248.5C 191.607,239.466 209.94,233.966 229.5,232C 278.624,227.694 322.958,240.027 362.5,269C 370.583,274.839 377.916,281.339 384.5,288.5 Z"/></g>
<g><path style="opacity:0.133" fill="#e3e5e5" d="M 415.5,255.5 C 416.833,256.167 416.833,256.167 415.5,255.5 Z"/></g>
<g><path style="opacity:1" fill="#9ca0a4" d="M 157.5,257.5 C 154.252,260.499 150.585,262.999 146.5,265C 145.299,265.903 144.465,267.069 144,268.5C 143.667,268.167 143.333,267.833 143,267.5C 140.157,270.063 136.657,272.397 132.5,274.5C 139.959,267.6 148.292,261.933 157.5,257.5 Z"/></g>
<g><path style="opacity:1" fill="#a0a5a9" d="M 400.5,246.5 C 406.65,251.133 412.983,255.633 419.5,260C 423.472,264.307 427.472,268.641 431.5,273C 432.449,273.617 433.282,273.451 434,272.5C 434.333,273.833 434.667,275.167 435,276.5C 439.213,279.961 442.713,283.961 445.5,288.5C 431.123,273.788 416.123,259.788 400.5,246.5 Z"/></g>
<g><path style="opacity:0.133" fill="#e3e5e5" d="M 26.5,266.5 C 27.8333,267.167 27.8333,267.167 26.5,266.5 Z"/></g>
<g><path style="opacity:1" fill="#989da1" d="M 38.5,168.5 C 39.1532,196.559 38.4865,224.393 36.5,252C 36.8333,252.333 37.1667,252.667 37.5,253C 32.9239,256.744 29.2573,261.244 26.5,266.5C 23.9988,271.19 20.8322,275.524 17,279.5C 16.51,278.207 16.3433,276.873 16.5,275.5C 16.8333,275.5 17.1667,275.5 17.5,275.5C 23.5906,266.987 29.924,258.654 36.5,250.5C 37.1667,223.167 37.8333,195.833 38.5,168.5 Z"/></g>
<g><path style="opacity:0.667" fill="#787e7f" d="M 474.5,273.5 C 473.833,274.167 473.833,274.167 474.5,273.5 Z"/></g>
<g><path style="opacity:1" fill="#9fa4a8" d="M 384.5,288.5 C 389.489,290.639 392.323,294.305 393,299.5C 365.097,281.721 335.264,277.554 303.5,287C 295.771,290.203 288.105,293.37 280.5,296.5C 286.966,292.163 293.966,288.663 301.5,286C 332.376,276.379 361.876,279.879 390,296.5C 390.667,295.833 390.667,295.167 390,294.5C 387.96,292.63 386.127,290.63 384.5,288.5 Z"/></g>
<g><path style="opacity:0.133" fill="#e3e5e5" d="M 46.5,294.5 C 45.8333,293.167 45.8333,293.167 46.5,294.5 Z"/></g>
<g><path style="opacity:1" fill="#a4aaae" d="M 56.5,284.5 C 44.1207,299.572 32.454,315.238 21.5,331.5C 24.1127,335.728 26.446,340.061 28.5,344.5C 27.603,343.402 26.7697,343.402 26,344.5C 25.0235,339.551 22.5235,335.717 18.5,333C 23.5862,324.369 29.2528,316.202 35.5,308.5C 39.136,303.858 42.8027,299.191 46.5,294.5C 49.521,290.812 52.8544,287.479 56.5,284.5 Z"/></g>
<g><path style="opacity:1" fill="#9fa3a8" d="M 388.5,309.5 C 382.823,307.245 377.323,304.578 372,301.5C 371.667,301.833 371.333,302.167 371,302.5C 354.682,294.79 337.849,293.623 320.5,299C 313.251,301.625 306.251,304.791 299.5,308.5C 320.674,293.572 343.674,290.405 368.5,299C 375.67,301.75 382.337,305.25 388.5,309.5 Z"/></g>
<g><path style="opacity:0.4" fill="#acb1b3" d="M 37.5,302.5 C 38.8333,303.167 38.8333,303.167 37.5,302.5 Z"/></g>
<g><path style="opacity:0.267" fill="#cacccc" d="M 35.5,308.5 C 34.8333,307.167 34.8333,307.167 35.5,308.5 Z"/></g>
<g><path style="opacity:1" fill="#91989f" d="M 299.5,308.5 C 299.027,309.906 298.027,310.573 296.5,310.5C 296.973,309.094 297.973,308.427 299.5,308.5 Z"/></g>
<g><path style="opacity:0.133" fill="#e3e5e5" d="M 470.5,316.5 C 471.833,317.167 471.833,317.167 470.5,316.5 Z"/></g>
<g><path style="opacity:1" fill="#a1a6aa" d="M 445.5,288.5 C 457.471,301.153 468.305,314.819 478,329.5C 478.747,331.928 477.914,333.594 475.5,334.5C 476.974,332.073 476.807,329.74 475,327.5C 464.925,314.027 455.092,301.027 445.5,288.5 Z"/></g>
<g><path style="opacity:1" fill="#a2a6aa" d="M 280.5,296.5 C 264.186,308.335 248.186,320.669 232.5,333.5C 232.833,332.833 233.167,332.167 233.5,331.5C 243.108,322.549 252.941,314.549 263,307.5C 268.02,303.358 273.854,299.692 280.5,296.5 Z"/></g>
<g><path style="opacity:1" fill="#9a9ea3" d="M 132.5,274.5 C 119.432,286.064 106.766,298.231 94.5,311C 94.8333,311.333 95.1667,311.667 95.5,312C 92.7854,312.875 91.4521,314.708 91.5,317.5C 90.8826,317.389 90.3826,317.056 90,316.5C 87.9692,319.355 85.8025,322.022 83.5,324.5C 80.7632,328.929 77.4299,332.929 73.5,336.5C 75.7279,332.388 78.2279,328.388 81,324.5C 92.7693,310.728 105.269,297.562 118.5,285C 122.78,280.874 127.446,277.374 132.5,274.5 Z"/></g>
<g><path style="opacity:1" fill="#9ea3a6" d="M 390.5,310.5 C 402.105,316.926 412.439,325.092 421.5,335C 414.072,345.926 405.739,356.093 396.5,365.5C 402.143,358.185 407.809,350.852 413.5,343.5C 414.167,343.5 414.5,343.167 414.5,342.5C 415.931,340.563 417.598,338.73 419.5,337C 418.36,334.369 416.694,332.202 414.5,330.5C 406.509,323.655 398.509,316.989 390.5,310.5 Z"/></g>
<g><path style="opacity:0.133" fill="#e3e5e5" d="M 476.5,335.5 C 477.833,336.167 477.833,336.167 476.5,335.5 Z"/></g>
<g><path style="opacity:1" fill="#a0a4a7" d="M 73.5,336.5 C 73.3236,339.079 74.6569,341.079 77.5,342.5C 80.5203,345.516 83.8536,348.183 87.5,350.5C 87.8333,351.167 88.1667,351.833 88.5,352.5C 82.425,349.028 76.925,344.694 72,339.5C 71.4153,338.002 71.9153,337.002 73.5,336.5 Z"/></g>
<g><path style="opacity:1" fill="#a6a9ad" d="M 232.5,333.5 C 228.1,338.214 223.434,342.714 218.5,347C 216.595,348.421 214.595,349.588 212.5,350.5C 214.86,347.473 217.527,344.806 220.5,342.5C 221.984,340.926 223.651,339.593 225.5,338.5C 226.167,338.5 226.5,338.167 226.5,337.5C 228.127,335.536 230.127,334.203 232.5,333.5 Z"/></g>
<g><path style="opacity:0.4" fill="#999ea1" d="M 28.5,344.5 C 31.6599,348.148 34.3265,352.148 36.5,356.5C 32.6095,353.331 29.9428,349.331 28.5,344.5 Z"/></g>
<g><path style="opacity:0.267" fill="#d0d3d3" d="M 465.5,351.5 C 466.833,352.167 466.833,352.167 465.5,351.5 Z"/></g>
<g><path style="opacity:1" fill="#96999c" d="M 212.5,350.5 C 208.668,355.1 204.002,358.767 198.5,361.5C 202.342,356.897 207.009,353.23 212.5,350.5 Z"/></g>
<g><path style="opacity:1" fill="#93989c" d="M 475.5,334.5 C 474.828,337.343 473.495,339.843 471.5,342C 471.833,342.333 472.167,342.667 472.5,343C 469.607,345.391 467.273,348.225 465.5,351.5C 461.55,357.451 457.217,363.118 452.5,368.5C 459.361,356.636 467.028,345.302 475.5,334.5 Z"/></g>
<g><path style="opacity:1" fill="#9ea2a7" d="M 296.5,310.5 C 279.995,325.527 263.495,340.527 247,355.5C 246.667,355.167 246.333,354.833 246,354.5C 239.882,360.126 233.382,365.126 226.5,369.5C 191.801,391.932 154.801,396.599 115.5,383.5C 122.519,390.554 129.519,396.888 136.5,402.5C 127.162,396.476 118.496,389.476 110.5,381.5C 111.167,381.167 111.833,380.833 112.5,380.5C 155.963,396.353 196.297,390.52 233.5,363C 250.29,349.933 266.29,335.933 281.5,321C 286.208,316.988 291.208,313.488 296.5,310.5 Z"/></g>
<g><path style="opacity:1" fill="#a1a5a9" d="M 36.5,356.5 C 42.984,364.134 48.984,372.134 54.5,380.5C 46.9955,373.083 40.9955,365.083 36.5,356.5 Z"/></g>
<g><path style="opacity:1" fill="#9ea2a8" d="M 88.5,352.5 C 91.8056,354.489 95.1389,356.489 98.5,358.5C 105.748,363.616 114.081,367.616 123.5,370.5C 137.994,375.685 152.994,377.352 168.5,375.5C 144.36,379.306 121.694,374.806 100.5,362C 96.0251,359.35 92.0251,356.183 88.5,352.5 Z"/></g>
<g><path style="opacity:1" fill="#a9adb1" d="M 198.5,361.5 C 189.839,368.828 179.839,373.495 168.5,375.5C 172.078,374.133 175.578,372.466 179,370.5C 179.333,370.833 179.667,371.167 180,371.5C 185.913,367.218 192.079,363.885 198.5,361.5 Z"/></g>
<g><path style="opacity:0.267" fill="#c8cbcc" d="M 450.5,372.5 C 451.833,373.167 451.833,373.167 450.5,372.5 Z"/></g>
<g><path style="opacity:1" fill="#9c9fa3" d="M 452.5,368.5 C 452.473,370.199 451.806,371.533 450.5,372.5C 448.01,375.949 445.343,379.282 442.5,382.5C 439.527,386.14 436.194,389.473 432.5,392.5C 438.797,384.202 445.463,376.202 452.5,368.5 Z"/></g>
<g><path style="opacity:0.133" fill="#e4e5e5" d="M 442.5,382.5 C 443.833,383.167 443.833,383.167 442.5,382.5 Z"/></g>
<g><path style="opacity:1" fill="#a0a3a6" d="M 54.5,380.5 C 56.914,381.911 58.5806,383.911 59.5,386.5C 57.66,384.832 55.66,383.332 53.5,382C 54.056,381.617 54.3893,381.117 54.5,380.5 Z"/></g>
<g><path style="opacity:0.533" fill="#929799" d="M 59.5,387.5 C 58.8333,388.167 58.8333,388.167 59.5,387.5 Z"/></g>
<g><path style="opacity:1" fill="#a2a7ac" d="M 60.5,387.5 C 65.2297,391.227 69.2297,395.56 72.5,400.5C 67.7703,396.773 63.7703,392.44 60.5,387.5 Z"/></g>
<g><path style="opacity:1" fill="#aaaeb3" d="M 396.5,365.5 C 392.076,371.429 387.076,376.929 381.5,382C 375.859,386.971 370.192,391.971 364.5,397C 362.595,398.421 360.595,399.588 358.5,400.5C 363.776,395.538 368.776,390.871 373.5,386.5C 378.112,383.474 382.445,379.474 386.5,374.5C 389.879,371.449 393.212,368.449 396.5,365.5 Z"/></g>
<g><path style="opacity:1" fill="#a9adb1" d="M 432.5,392.5 C 430.5,395.833 427.833,398.5 424.5,400.5C 426.167,396.833 428.833,394.167 432.5,392.5 Z"/></g>
<g><path style="opacity:0.133" fill="#e3e5e5" d="M 64.5,399.5 C 65.8333,400.167 65.8333,400.167 64.5,399.5 Z"/></g>
<g><path style="opacity:0.133" fill="#aaaeb3" d="M 72.5,400.5 C 77.4601,403.792 81.7934,407.792 85.5,412.5C 80.5138,409.179 76.1804,405.179 72.5,400.5 Z"/></g>
<g><path style="opacity:0.533" fill="#9ea3a7" d="M 424.5,400.5 C 422.855,404.145 420.188,406.812 416.5,408.5C 418.264,405.007 420.931,402.34 424.5,400.5 Z"/></g>
<g><path style="opacity:1" fill="#2f373c" d="M 415.5,410.5 C 416.833,411.167 416.833,411.167 415.5,410.5 Z"/></g>
<g><path style="opacity:1" fill="#9d9ea3" d="M 136.5,402.5 C 147.223,408.84 157.89,415.174 168.5,421.5C 156.804,416.784 146.137,410.45 136.5,402.5 Z"/></g>
<g><path style="opacity:1" fill="#9ca1a5" d="M 416.5,408.5 C 416.167,409.167 415.833,409.833 415.5,410.5C 406.519,419.579 396.186,427.579 384.5,434.5C 395.451,426.219 406.118,417.552 416.5,408.5 Z"/></g>
<g><path style="opacity:1" fill="#a6abae" d="M 358.5,400.5 C 357.525,402.193 356.192,403.693 354.5,405C 350.5,407.667 346.5,410.333 342.5,413C 334.691,418.238 326.358,422.404 317.5,425.5C 323.965,422.1 330.298,418.433 336.5,414.5C 340.28,412.56 343.946,410.393 347.5,408C 350.978,404.348 354.645,401.848 358.5,400.5 Z"/></g>
<g><path style="opacity:0.133" fill="#e3e5e5" d="M 93.5,420.5 C 92.8333,421.167 92.8333,421.167 93.5,420.5 Z"/></g>
<g><path style="opacity:1" fill="#9ea3a8" d="M 86.5,413.5 C 102.619,425.953 119.285,437.619 136.5,448.5C 124.144,442.997 112.811,435.997 102.5,427.5C 99.6316,424.99 96.6316,422.657 93.5,420.5C 90.8605,418.527 88.5272,416.194 86.5,413.5 Z"/></g>
<g><path style="opacity:0.267" fill="#c7cbcc" d="M 102.5,427.5 C 101.833,428.167 101.833,428.167 102.5,427.5 Z"/></g>
<g><path style="opacity:1" fill="#9da2a6" d="M 168.5,421.5 C 179.027,425.591 189.694,429.425 200.5,433C 233.622,441.996 266.622,441.662 299.5,432C 301.224,431.552 301.891,430.718 301.5,429.5C 302.687,430.653 303.687,430.653 304.5,429.5C 306.564,429.313 308.564,428.813 310.5,428C 312.555,425.619 314.889,424.786 317.5,425.5C 301.937,433.729 285.27,438.562 267.5,440C 235.971,443.158 205.804,438.324 177,425.5C 176.667,425.833 176.333,426.167 176,426.5C 173.26,425.101 170.76,423.434 168.5,421.5 Z"/></g>
<g><path style="opacity:0.267" fill="#aeb3b5" d="M 384.5,434.5 C 381.35,437.579 377.683,439.913 373.5,441.5C 376.65,438.421 380.317,436.087 384.5,434.5 Z"/></g>
<g><path style="opacity:0.667" fill="#8d9497" d="M 367.5,446.5 C 368.833,447.167 368.833,447.167 367.5,446.5 Z"/></g>
<g><path style="opacity:1" fill="#9aa0a4" d="M 136.5,448.5 C 142.386,450.229 147.719,452.895 152.5,456.5C 146.581,454.874 141.247,452.207 136.5,448.5 Z"/></g>
<g><path style="opacity:1" fill="#9ca2a6" d="M 373.5,441.5 C 371.5,443.167 369.5,444.833 367.5,446.5C 359.759,450.704 351.759,454.37 343.5,457.5C 353.264,451.739 363.264,446.406 373.5,441.5 Z"/></g>
<g><path style="opacity:1" fill="#a6aaae" d="M 442.5,449.5 C 443.117,449.611 443.617,449.944 444,450.5C 444.333,454.167 444.667,457.833 445,461.5C 447.719,462.444 450.552,462.777 453.5,462.5C 453.5,458.5 453.5,454.5 453.5,450.5C 455.833,450.5 458.167,450.5 460.5,450.5C 460.691,459.934 460.691,469.268 460.5,478.5C 458.167,478.5 455.833,478.5 453.5,478.5C 453.665,475.482 453.498,472.482 453,469.5C 450.281,468.556 447.448,468.223 444.5,468.5C 444.665,471.85 444.498,475.183 444,478.5C 442.236,480.259 440.069,480.426 437.5,479C 437.851,471.467 437.351,463.633 436,455.5C 433.865,457.278 431.365,457.945 428.5,457.5C 428.666,464.508 428.5,471.508 428,478.5C 426,479.833 424,479.833 422,478.5C 421.5,471.174 421.334,463.841 421.5,456.5C 419.5,456.5 417.5,456.5 415.5,456.5C 415.5,454.5 415.5,452.5 415.5,450.5C 421.842,450.334 428.175,450.5 434.5,451C 435.191,452.067 435.691,453.234 436,454.5C 436.309,453.234 436.809,452.067 437.5,451C 439.382,450.802 441.048,450.302 442.5,449.5 Z M 438.5,451.5 C 440.167,451.5 441.833,451.5 443.5,451.5C 443.5,455.5 443.5,459.5 443.5,463.5C 447.179,463.724 450.846,464.058 454.5,464.5C 454.5,460.167 454.5,455.833 454.5,451.5C 456.167,451.5 457.833,451.5 459.5,451.5C 459.666,459.84 459.5,468.173 459,476.5C 457.644,477.38 456.144,477.714 454.5,477.5C 454.789,473.894 454.456,470.394 453.5,467C 450.254,467.317 446.92,467.483 443.5,467.5C 443.5,470.833 443.5,474.167 443.5,477.5C 441.833,477.5 440.167,477.5 438.5,477.5C 438.5,468.833 438.5,460.167 438.5,451.5 Z M 416.5,451.5 C 422.316,452.408 427.983,452.408 433.5,451.5C 433.5,452.833 433.5,454.167 433.5,455.5C 431.167,455.5 428.833,455.5 426.5,455.5C 426.5,462.833 426.5,470.167 426.5,477.5C 425.167,477.5 423.833,477.5 422.5,477.5C 422.5,470.167 422.5,462.833 422.5,455.5C 420.473,455.662 418.473,455.495 416.5,455C 417.171,454.014 417.171,452.847 416.5,451.5 Z"/></g>
<g><path style="opacity:0.8" fill="#5a6164" d="M 174.5,466.5 C 173.833,467.167 173.833,467.167 174.5,466.5 Z"/></g>
<g><path style="opacity:0.133" fill="#e4e6e5" d="M 419.5,473.5 C 420.833,474.167 420.833,474.167 419.5,473.5 Z"/></g>
<g><path style="opacity:1" fill="#acb2b5" d="M 476.5,478.5 C 471.639,478.937 466.972,478.437 462.5,477C 462.919,472.48 462.919,467.814 462.5,463C 462.516,458.918 462.849,454.918 463.5,451C 468.155,450.501 472.821,450.334 477.5,450.5C 477.5,452.833 477.5,455.167 477.5,457.5C 474.833,457.5 472.167,457.5 469.5,457.5C 469.5,458.833 469.5,460.167 469.5,461.5C 471.167,461.5 472.833,461.5 474.5,461.5C 474.5,463.5 474.5,465.5 474.5,467.5C 471.05,466.756 469.384,468.09 469.5,471.5C 476.023,470.267 478.356,472.6 476.5,478.5 Z M 464.5,451.5 C 468.167,451.5 471.833,451.5 475.5,451.5C 475.5,453.167 475.5,454.833 475.5,456.5C 473.143,456.337 470.81,456.503 468.5,457C 468.146,458.626 468.146,460.459 468.5,462.5C 470.681,462.284 472.347,463.117 473.5,465C 471.392,465.36 469.392,466.027 467.5,467C 468.423,469.041 468.756,471.208 468.5,473.5C 470.833,473.5 473.167,473.5 475.5,473.5C 475.5,474.833 475.5,476.167 475.5,477.5C 471.833,477.5 468.167,477.5 464.5,477.5C 464.5,468.833 464.5,460.167 464.5,451.5 Z"/></g>
<g><path style="opacity:0.4" fill="#aeb3b3" d="M 207.5,475.5 C 208.833,476.167 208.833,476.167 207.5,475.5 Z"/></g>
<g><path style="opacity:1" fill="#999ea2" d="M 152.5,456.5 C 216.065,483.807 279.732,484.14 343.5,457.5C 336.916,460.792 330.25,464.125 323.5,467.5C 321.851,467.925 320.017,467.925 318,467.5C 316.333,468.5 314.667,469.5 313,470.5C 312.586,470.043 312.086,469.709 311.5,469.5C 273.083,481.604 233.916,482.27 194,471.5C 193.667,471.833 193.333,472.167 193,472.5C 187.008,470.003 180.842,468.003 174.5,466.5C 166.88,463.74 159.546,460.407 152.5,456.5 Z"/></g>
<g><path style="opacity:0.133" fill="#e3e5e5" d="M 476.5,478.5 C 477.833,479.167 477.833,479.167 476.5,478.5 Z"/></g>
</svg>
