<svg xmlns="http://www.w3.org/2000/svg" version="1.1" viewBox="1.6598970890045166 1.4391666650772095 331.8704833984375 393.281494140625" width="335.00" height="396.00">
<g stroke-width="2.00" fill="none" stroke-linecap="butt">
<path stroke="#077f2b" d="&#10;  M 258.00 300.13&#10;  C 258.59 298.59 259.60 297.23 259.60 295.49&#10;  Q 259.62 289.21 259.91 283.10&#10;  Q 260.18 277.15 260.19 270.73&#10;  Q 260.28 223.17 260.31 173.93&#10;  Q 260.31 168.31 259.29 165.78&#10;  Q 257.27 160.73 250.33 159.53&#10;  Q 248.46 159.21 246.44 158.79&#10;  C 241.53 157.76 232.04 161.86 231.91 167.58&#10;  Q 231.32 193.25 232.04 236.74&#10;  C 232.41 259.03 232.34 281.55 232.23 303.40&#10;  A 0.35 0.34 90.0 0 0 232.57 303.75&#10;  Q 242.39 303.72 251.77 303.77&#10;  C 254.69 303.79 256.82 303.15 258.00 300.13" data-c-stroke="356343"/>
<path stroke="#077f2b" d="&#10;  M 171.27 303.74&#10;  L 195.75 303.78&#10;  A 0.96 0.96 0.0 0 0 196.71 302.82&#10;  L 196.85 219.87&#10;  A 12.67 11.63 -89.9 0 0 185.24 207.18&#10;  L 182.10 207.18&#10;  A 12.67 11.63 -89.9 0 0 170.45 219.83&#10;  L 170.31 302.78&#10;  A 0.96 0.96 0.0 0 0 171.27 303.74" data-c-stroke="356343"/>
</g>
<path fill="#151516" d="&#10;  M 146.81 13.46&#10;  A 0.65 0.65 0.0 0 0 146.35 14.07&#10;  Q 146.14 24.54 146.25 34.55&#10;  Q 146.36 44.93 144.97 52.28&#10;  Q 143.39 60.60 138.84 69.07&#10;  Q 135.71 74.91 132.12 77.85&#10;  Q 125.39 83.37 120.14 85.83&#10;  Q 113.70 88.84 106.85 90.28&#10;  Q 101.25 91.46 92.48 91.46&#10;  Q 54.71 91.47 21.25 91.52&#10;  C 19.36 91.52 16.71 91.30 15.29 92.73&#10;  Q 13.31 94.72 13.32 97.48&#10;  Q 13.38 121.89 13.30 147.76&#10;  C 13.30 150.05 12.10 152.12 10.20 153.41&#10;  Q 6.43 155.98 3.11 158.67&#10;  A 0.42 0.42 0.0 0 1 2.42 158.34&#10;  Q 2.53 126.63 2.45 95.00&#10;  C 2.44 93.44 3.86 89.90 4.86 88.15&#10;  Q 10.70 77.95 16.38 68.92&#10;  Q 18.59 65.42 26.25 57.79&#10;  C 27.78 56.26 28.89 54.44 30.45 52.92&#10;  C 34.93 48.55 38.92 43.88 43.39 39.50&#10;  Q 47.16 35.80 50.53 31.82&#10;  C 53.27 28.58 56.44 26.10 59.54 23.28&#10;  C 61.82 21.21 63.41 18.96 65.25 16.58&#10;  Q 66.23 15.32 67.72 14.26&#10;  Q 72.93 10.55 78.16 5.55&#10;  C 79.93 3.86 83.14 2.53 85.72 2.41&#10;  C 88.13 2.31 90.29 1.67 92.76 1.67&#10;  Q 158.12 1.44 223.80 1.44&#10;  A 0.43 0.43 0.0 0 1 224.23 1.92&#10;  Q 223.90 4.76 223.92 7.46&#10;  C 223.94 9.10 223.29 10.54 223.80 12.17&#10;  Q 224.05 12.98 223.22 13.10&#10;  Q 221.70 13.34 220.14 13.34&#10;  Q 185.74 13.47 150.30 13.48&#10;  C 149.12 13.48 147.95 13.13 146.81 13.46&#10;  Z&#10;  M 117.55 72.62&#10;  C 128.52 66.31 133.69 54.11 133.71 41.54&#10;  Q 133.72 27.62 133.79 14.31&#10;  A 0.78 0.77 90.0 0 0 133.02 13.53&#10;  Q 114.01 13.54 94.80 13.48&#10;  C 89.47 13.46 84.69 15.32 81.03 19.19&#10;  Q 76.05 24.47 70.74 29.39&#10;  Q 69.00 31.01 67.54 32.79&#10;  C 64.95 35.97 62.35 39.05 59.45 41.97&#10;  Q 49.16 52.34 39.60 62.62&#10;  C 35.08 67.48 31.00 72.83 26.21 77.45&#10;  Q 24.94 78.68 26.71 78.67&#10;  Q 58.96 78.43 91.95 78.57&#10;  C 102.08 78.62 109.19 77.42 117.55 72.62&#10;  Z" data-c-fill="151516"/>
<path fill="#151516" d="&#10;  M 301.47 15.24&#10;  Q 299.90 14.50 295.72 13.81&#10;  Q 292.61 13.30 289.41 13.31&#10;  Q 263.23 13.40 240.19 13.29&#10;  A 0.70 0.70 0.0 0 1 239.49 12.60&#10;  L 239.40 2.39&#10;  A 0.90 0.89 89.7 0 1 240.29 1.48&#10;  Q 265.81 1.41 292.18 1.46&#10;  Q 298.01 1.47 301.24 2.26&#10;  C 308.91 4.14 314.54 8.08 320.32 13.15&#10;  Q 324.94 17.20 328.36 23.48&#10;  Q 330.96 28.26 332.58 34.99&#10;  Q 333.55 39.05 333.53 45.18&#10;  Q 333.27 106.44 333.17 165.68&#10;  C 333.16 175.18 332.68 185.07 332.64 195.50&#10;  Q 332.45 259.17 332.67 322.84&#10;  Q 332.67 322.87 333.03 329.65&#10;  C 333.32 335.19 332.33 340.42 332.90 346.03&#10;  Q 333.27 349.63 333.30 352.83&#10;  C 333.35 356.97 333.85 361.71 332.30 365.54&#10;  C 330.84 369.15 329.28 372.53 326.65 375.58&#10;  Q 324.84 377.68 323.03 380.18&#10;  C 320.07 384.25 315.69 388.22 311.00 390.36&#10;  C 305.37 392.92 300.02 394.72 293.93 394.72&#10;  Q 221.02 394.73 146.33 394.59&#10;  A 0.82 0.81 -90.0 0 1 145.52 393.77&#10;  L 145.53 383.75&#10;  A 1.14 1.14 0.0 0 1 146.67 382.61&#10;  Q 219.06 382.59 294.09 382.58&#10;  Q 298.53 382.58 302.59 380.20&#10;  C 308.40 376.79 315.78 372.82 318.32 366.29&#10;  Q 321.67 357.70 321.65 350.00&#10;  Q 321.40 243.45 321.98 143.26&#10;  Q 322.00 140.04 322.05 136.50&#10;  Q 322.61 93.31 322.42 53.62&#10;  Q 322.40 50.02 321.94 46.87&#10;  C 321.50 43.88 321.51 40.85 320.64 37.96&#10;  Q 315.86 22.10 301.47 15.24&#10;  Z" data-c-fill="151516"/>
<path fill="#151516" d="&#10;  M 100.26 303.25&#10;  A 0.75 0.74 -13.9 0 0 100.66 302.59&#10;  Q 100.77 275.35 100.59 247.84&#10;  C 100.56 244.25 102.07 241.07 104.55 238.70&#10;  Q 109.03 234.42 115.97 230.77&#10;  C 118.80 229.29 122.08 229.59 125.17 229.49&#10;  Q 137.76 229.08 145.92 238.35&#10;  C 148.33 241.10 148.51 244.39 149.02 247.83&#10;  Q 149.34 249.97 149.34 252.40&#10;  Q 149.33 277.87 149.29 301.85&#10;  A 1.67 1.66 89.7 0 0 150.97 303.52&#10;  L 157.48 303.48&#10;  Q 158.58 303.47 158.57 302.37&#10;  Q 158.50 261.42 158.49 218.84&#10;  Q 158.49 216.16 159.03 214.00&#10;  C 160.22 209.18 161.49 204.17 165.69 201.00&#10;  C 172.49 195.88 178.69 194.31 186.68 193.73&#10;  Q 187.27 193.69 187.79 193.98&#10;  Q 192.10 196.44 196.78 198.01&#10;  C 199.80 199.03 203.90 201.32 205.78 203.96&#10;  Q 208.37 207.61 208.37 212.01&#10;  Q 208.41 253.86 208.28 297.62&#10;  Q 208.27 300.08 208.53 302.58&#10;  A 0.98 0.97 -2.9 0 0 209.50 303.45&#10;  L 219.21 303.45&#10;  A 1.19 1.19 0.0 0 0 220.40 302.27&#10;  Q 220.62 237.14 220.37 169.54&#10;  Q 220.35 164.45 221.77 160.87&#10;  C 224.27 154.55 229.17 150.42 235.61 148.44&#10;  Q 238.81 147.46 241.72 146.85&#10;  Q 244.06 146.36 248.61 146.66&#10;  Q 261.27 147.48 268.32 156.95&#10;  Q 272.47 162.52 272.48 169.87&#10;  Q 272.58 235.46 272.48 296.15&#10;  C 272.47 301.71 269.62 305.80 265.96 309.74&#10;  C 262.20 313.78 257.35 316.35 251.90 316.41&#10;  Q 239.88 316.56 230.59 316.11&#10;  Q 226.06 315.89 222.58 316.13&#10;  C 220.51 316.26 218.62 315.65 216.60 315.64&#10;  Q 151.14 315.55 84.73 315.62&#10;  C 80.18 315.63 75.43 314.48 72.77 310.74&#10;  C 71.42 308.84 69.58 307.48 68.67 305.26&#10;  C 67.20 301.69 65.42 298.96 65.43 294.79&#10;  Q 65.49 247.93 65.46 201.32&#10;  C 65.46 198.50 65.58 195.41 66.28 192.67&#10;  C 67.80 186.72 68.84 180.34 71.33 174.98&#10;  C 73.97 169.31 76.87 162.15 81.74 158.06&#10;  C 86.45 154.11 90.75 150.34 97.00 149.74&#10;  Q 99.58 149.49 102.13 149.02&#10;  Q 104.83 148.53 107.02 148.72&#10;  Q 116.59 149.54 120.63 151.41&#10;  Q 124.54 153.23 131.45 158.13&#10;  Q 135.22 160.80 138.54 164.31&#10;  Q 143.47 169.53 149.17 173.22&#10;  C 160.87 180.80 166.53 166.58 169.18 158.34&#10;  Q 170.41 154.51 171.88 150.66&#10;  Q 175.12 142.13 178.00 133.48&#10;  C 178.73 131.27 181.45 128.15 183.54 126.61&#10;  Q 192.03 120.33 198.47 118.84&#10;  C 202.72 117.86 206.66 116.30 210.89 115.46&#10;  C 216.55 114.34 221.79 113.26 226.96 109.99&#10;  Q 234.91 104.96 242.25 99.25&#10;  A 2.03 2.03 0.0 0 0 242.88 98.40&#10;  C 245.29 92.05 249.81 87.76 253.19 82.07&#10;  C 255.30 78.50 256.39 74.59 258.41 70.98&#10;  A 1.79 1.77 -79.7 0 1 259.66 70.10&#10;  Q 263.68 69.43 267.90 69.82&#10;  A 1.74 1.73 -1.0 0 1 269.46 71.32&#10;  Q 270.15 76.56 267.46 81.65&#10;  Q 262.90 90.28 258.35 98.45&#10;  C 255.56 103.46 251.07 107.48 247.01 111.26&#10;  Q 238.09 119.55 227.50 124.10&#10;  C 223.86 125.67 219.95 126.29 216.11 127.17&#10;  Q 211.95 128.12 208.04 128.83&#10;  C 202.25 129.88 191.45 132.79 189.37 139.22&#10;  C 188.43 142.13 187.87 145.14 186.56 147.95&#10;  Q 184.77 151.78 183.73 155.68&#10;  C 182.52 160.20 179.99 164.12 178.41 168.50&#10;  Q 176.81 172.95 174.35 177.46&#10;  Q 172.85 180.21 170.48 181.85&#10;  C 167.94 183.61 166.26 185.77 163.15 186.75&#10;  Q 157.78 188.43 154.37 188.19&#10;  Q 148.33 187.75 142.99 184.87&#10;  Q 138.80 182.61 134.24 177.72&#10;  C 128.69 171.78 122.57 166.87 114.72 163.53&#10;  C 112.08 162.40 109.51 162.51 106.83 161.84&#10;  Q 104.81 161.33 102.53 161.85&#10;  C 98.73 162.71 95.42 162.99 92.32 165.89&#10;  Q 89.09 168.92 86.81 172.91&#10;  Q 80.18 184.53 77.73 197.98&#10;  Q 77.31 200.28 77.32 202.89&#10;  Q 77.40 255.25 77.36 294.33&#10;  Q 77.35 298.33 79.64 301.79&#10;  Q 80.67 303.34 83.31 303.39&#10;  Q 91.56 303.56 99.51 303.44&#10;  Q 99.91 303.43 100.26 303.25&#10;  Z&#10;  M 258.00 300.13&#10;  C 258.59 298.59 259.60 297.23 259.60 295.49&#10;  Q 259.62 289.21 259.91 283.10&#10;  Q 260.18 277.15 260.19 270.73&#10;  Q 260.28 223.17 260.31 173.93&#10;  Q 260.31 168.31 259.29 165.78&#10;  Q 257.27 160.73 250.33 159.53&#10;  Q 248.46 159.21 246.44 158.79&#10;  C 241.53 157.76 232.04 161.86 231.91 167.58&#10;  Q 231.32 193.25 232.04 236.74&#10;  C 232.41 259.03 232.34 281.55 232.23 303.40&#10;  A 0.35 0.34 90.0 0 0 232.57 303.75&#10;  Q 242.39 303.72 251.77 303.77&#10;  C 254.69 303.79 256.82 303.15 258.00 300.13&#10;  Z&#10;  M 171.27 303.74&#10;  L 195.75 303.78&#10;  A 0.96 0.96 0.0 0 0 196.71 302.82&#10;  L 196.85 219.87&#10;  A 12.67 11.63 -89.9 0 0 185.24 207.18&#10;  L 182.10 207.18&#10;  A 12.67 11.63 -89.9 0 0 170.45 219.83&#10;  L 170.31 302.78&#10;  A 0.96 0.96 0.0 0 0 171.27 303.74&#10;  Z&#10;  M 114.02 303.49&#10;  L 137.06 303.45&#10;  A 1.47 1.47 0.0 0 0 138.53 301.98&#10;  L 138.45 254.19&#10;  A 12.86 11.88 89.9 0 0 126.55 241.35&#10;  L 124.33 241.35&#10;  A 12.86 11.88 89.9 0 0 112.47 254.23&#10;  L 112.55 302.02&#10;  A 1.47 1.47 0.0 0 0 114.02 303.49&#10;  Z" data-c-fill="151516"/>
<path fill="#54b16f" d="&#10;  M 258.00 300.13&#10;  C 256.82 303.15 254.69 303.79 251.77 303.77&#10;  Q 242.39 303.72 232.57 303.75&#10;  A 0.35 0.34 -90.0 0 1 232.23 303.40&#10;  C 232.34 281.55 232.41 259.03 232.04 236.74&#10;  Q 231.32 193.25 231.91 167.58&#10;  C 232.04 161.86 241.53 157.76 246.44 158.79&#10;  Q 248.46 159.21 250.33 159.53&#10;  Q 257.27 160.73 259.29 165.78&#10;  Q 260.31 168.31 260.31 173.93&#10;  Q 260.28 223.17 260.19 270.73&#10;  Q 260.18 277.15 259.91 283.10&#10;  Q 259.62 289.21 259.60 295.49&#10;  C 259.60 297.23 258.59 298.59 258.00 300.13&#10;  Z" data-c-fill="54b16f"/>
<path fill="#151516" d="&#10;  M 17.12 363.76&#10;  C 21.17 371.69 26.86 378.92 35.45 381.56&#10;  Q 39.36 382.76 46.98 382.67&#10;  Q 62.59 382.48 76.85 382.64&#10;  A 1.66 1.65 90.0 0 1 78.49 384.29&#10;  L 78.50 394.17&#10;  A 0.47 0.46 -0.6 0 1 78.03 394.64&#10;  Q 58.82 394.65 40.43 394.66&#10;  C 32.74 394.66 25.59 391.62 19.39 387.09&#10;  Q 15.56 384.30 12.97 380.47&#10;  C 10.61 376.99 7.66 374.32 6.04 370.31&#10;  Q 3.78 364.68 2.61 358.88&#10;  Q 1.65 354.11 1.66 347.57&#10;  Q 1.77 261.53 1.66 178.39&#10;  Q 1.66 177.71 2.05 177.16&#10;  Q 5.26 172.62 10.77 173.84&#10;  C 12.66 174.25 13.30 175.41 13.30 177.22&#10;  Q 13.33 263.19 13.29 348.25&#10;  Q 13.29 356.27 17.12 363.76&#10;  Z" data-c-fill="151516"/>
<path fill="#54b16f" d="&#10;  M 171.27 303.74&#10;  A 0.96 0.96 0.0 0 1 170.31 302.78&#10;  L 170.45 219.83&#10;  A 12.67 11.63 -89.9 0 1 182.10 207.18&#10;  L 185.24 207.18&#10;  A 12.67 11.63 -89.9 0 1 196.85 219.87&#10;  L 196.71 302.82&#10;  A 0.96 0.96 0.0 0 1 195.75 303.78&#10;  L 171.27 303.74&#10;  Z" data-c-fill="54b16f"/>
<path fill="#151516" d="&#10;  M 130.75 392.84&#10;  A 1.79 1.79 0.0 0 1 128.95 394.63&#10;  L 95.98 394.51&#10;  A 2.34 1.46 0.2 0 1 93.64 393.05&#10;  L 93.68 384.03&#10;  A 2.34 1.46 0.2 0 1 96.02 382.57&#10;  L 128.99 382.69&#10;  A 1.79 1.79 0.0 0 1 130.77 384.48&#10;  L 130.75 392.84&#10;  Z" data-c-fill="151516"/>
</svg>